<svg width="24" height="23" viewBox="0 0 24 23" fill="none" xmlns="http://www.w3.org/2000/svg">
<path d="M11.9988 0L23.9976 4.92893V6.57107H22.3985C22.3985 6.79237 22.3128 6.986 22.1414 7.14946C21.97 7.31292 21.7692 7.3934 21.5341 7.3934H2.46342C2.23079 7.3934 2.02755 7.31292 1.85614 7.14946C1.68473 6.986 1.59902 6.79488 1.59902 6.57107H0V4.92893L11.9988 0ZM3.20049 8.21321H6.40098V18.0711H8V8.21321H11.2005V18.0711H12.7995V8.21321H16V18.0711H17.599V8.21321H20.7995V18.0711H21.5366C21.7692 18.0711 21.9725 18.1515 22.1439 18.315C22.3153 18.4785 22.401 18.6696 22.401 18.8934V19.7157H1.59902V18.8934C1.59902 18.6721 1.68473 18.4785 1.85614 18.315C2.02755 18.1515 2.22834 18.0711 2.46342 18.0711H3.20049V8.21321ZM23.1356 20.5355C23.3682 20.5355 23.5715 20.616 23.7429 20.7795C23.9143 20.9429 24 21.134 24 21.3579V23H0V21.3579C0 21.1366 0.0857055 20.9429 0.257117 20.7795C0.428528 20.616 0.629324 20.5355 0.864402 20.5355H23.1356Z" fill="#335459"/>
</svg>
