<svg width="24" height="24" viewBox="0 0 24 24" fill="none" xmlns="http://www.w3.org/2000/svg">
<path d="M20.291 18.3477L20.2422 18.3398C20.2461 18.0859 20.25 17.8125 20.25 17.4961C20.25 9.93555 16.25 7.49609 13.584 6.49609H10.7285C8.25 7.49609 4.25 9.43555 4.25 17.4961C4.25 17.8125 4.25391 18.0879 4.26172 18.3398L4.21094 18.3477C3.6582 18.4316 3.25 18.9082 3.25 19.4668C3.25 20.0508 3.69336 20.5371 4.27539 20.5938L6.46875 20.7109C7.92578 21.1934 9.97461 21.4961 12.25 21.4961C14.5254 21.4961 16.5742 21.1934 18.0312 20.7109L20.2246 20.5938C20.8066 20.5371 21.25 20.0508 21.25 19.4668C21.25 18.9082 20.8418 18.4316 20.291 18.3477ZM11.8887 12.6309L13.1875 13.2988C13.8945 13.6621 14.2695 14.4102 14.1426 15.2012C14.0391 15.8555 13.6094 16.3652 13.0176 16.5801V16.8691C13.0176 17.2148 12.7383 17.4941 12.3926 17.4941C12.0469 17.4941 11.7676 17.2148 11.7676 16.8691V16.6191C11.1367 16.4492 10.6016 16.0059 10.3301 15.3809C10.1914 15.0645 10.3379 14.6953 10.6543 14.5586C10.9707 14.4199 11.3379 14.5664 11.4766 14.8828C11.6367 15.2539 12.0156 15.4844 12.4219 15.4453L12.4844 15.4375C12.8145 15.3848 12.8906 15.1172 12.9082 15.0039C12.9414 14.8066 12.8809 14.5469 12.6152 14.4102L11.3164 13.7422C10.6016 13.373 10.2207 12.5938 10.3691 11.7988C10.5078 11.0605 11.0488 10.5234 11.7676 10.3828V10.1191C11.7676 9.77344 12.0469 9.49414 12.3926 9.49414C12.7383 9.49414 13.0176 9.77344 13.0176 10.1191V10.5215C13.5254 10.7363 13.9414 11.1328 14.1699 11.6582C14.3086 11.9746 14.1621 12.3418 13.8457 12.4805C13.5312 12.6172 13.1621 12.4727 13.0234 12.1562C12.8633 11.7832 12.4824 11.5547 12.0781 11.5938C11.7012 11.6328 11.6152 11.9375 11.5996 12.0293C11.5801 12.127 11.5488 12.4551 11.8887 12.6309Z" fill="#335459"/>
<path d="M14.3731 1.11348C13.9414 0.83614 13.1973 1.10762 12.5743 1.70137C12.2715 1.99044 11.8067 1.99044 11.5039 1.70137C10.8809 1.10762 10.1446 0.847858 9.70511 1.11348C8.25004 1.9963 10.209 5.0627 10.3887 5.24044H13.6875C13.8692 5.0627 15.75 1.9963 14.3731 1.11348Z" fill="#335459"/>
</svg>
