<svg width="24" height="24" viewBox="0 0 24 24" fill="none" xmlns="http://www.w3.org/2000/svg">
<path fill-rule="evenodd" clip-rule="evenodd" d="M20.5008 20.4606C19.0757 21.8944 17.2866 22.949 15.3052 23.5267C16.2495 22.0928 17.0977 20.4606 17.7605 18.7378H21.9156C21.5378 19.3155 21.064 19.8968 20.5008 20.4606ZM9.72843 23.7111C8.59866 22.2773 7.65088 20.6589 6.98812 18.7378H11.6171V24C10.9544 23.9095 10.3912 23.9095 9.72843 23.7111ZM0 12.435H4.99986C4.99986 14.3422 5.28831 16.1589 5.7519 17.7912H1.50751C0.655888 16.2633 0.0927173 14.4327 0 12.435ZM12.4687 5.26218V0C13.0319 0 13.5058 4.44753e-07 13.9831 0.0904872C15.1129 1.52436 16.0607 3.25058 16.8196 5.26218H12.4687ZM17.0977 6.11833C17.5716 7.84107 17.8601 9.65777 17.9493 11.565H12.4687V6.11833H17.0977ZM11.6171 5.26218H6.98812C7.65088 3.35499 8.59866 1.63225 9.72843 0.198376C10.3912 0.090487 10.9544 0 11.6171 0V5.26218ZM11.6171 6.11833V11.565H5.85148C5.95107 9.65777 6.23609 7.84107 6.7031 6.11833H11.6171ZM4.99986 11.565H0C0.0927173 9.56728 0.655888 7.75058 1.50751 6.11833H5.7519C5.28831 7.84107 4.99986 9.65777 4.99986 11.565ZM5.85148 12.435H11.6171V17.7912H6.7031C6.23609 16.1589 5.95107 14.3422 5.85148 12.435ZM12.4687 18.7378H16.8196C16.1568 20.6589 15.1129 22.3817 13.9831 23.819C13.5058 23.9095 13.0319 23.9095 12.4687 24V18.7378ZM12.4687 17.7912V12.435H17.9493C17.8601 14.3422 17.5716 16.1589 17.0977 17.7912H12.4687ZM18.7975 12.435H24C24 14.4327 23.43 16.2633 22.4891 17.8817V17.7912H18.0386C18.5228 16.1589 18.7014 14.3422 18.7975 12.435ZM18.7975 11.565C18.7014 9.65777 18.5228 7.84107 17.9493 6.11833H22.4891C23.43 7.75058 24 9.56728 24 11.565H18.7975ZM21.9156 5.26218H17.6609C17.0977 3.44548 16.2495 1.81323 15.3052 0.37935C17.2866 0.960557 19.0757 2.0116 20.5008 3.44548C21.064 4.01276 21.5378 4.59049 21.9156 5.26218ZM3.58506 3.44548C4.91057 2.10557 6.5211 1.14153 8.40292 0.577726C7.46201 1.90719 6.61382 3.53944 6.04722 5.26218H2.08098C2.548 4.59049 3.02189 4.01276 3.58506 3.44548ZM2.08098 18.7378H6.04722C6.61382 20.4606 7.46201 22.0023 8.40292 23.4362C6.5211 22.8585 4.91057 21.8039 3.58506 20.4606C3.02189 19.8968 2.548 19.3155 2.08098 18.7378Z" fill="#335459"/>
</svg>
