<svg width="22" height="24" viewBox="0 0 22 24" fill="none" xmlns="http://www.w3.org/2000/svg">
<path fill-rule="evenodd" clip-rule="evenodd" d="M11.0976 19.7746C10.8359 20.7452 9.44364 20.7092 9.04725 20.0746C8.56493 19.3025 9.32594 18.0793 10.3077 18.4154C10.7704 18.5738 11.2761 19.1123 11.0976 19.7746V19.7746ZM11.2563 15.3722C11.1691 16.3582 11.3492 16.9962 10.4849 17.3617C10.194 17.4848 9.65526 17.6147 9.31356 17.4839C8.94736 17.3437 8.86424 17.0527 8.83614 16.5842C8.70976 14.4767 8.71999 11.9959 8.66164 9.8233C8.64686 9.27251 8.64609 9.00982 8.97949 8.75266C9.40669 8.42318 10.7764 8.21684 11.2219 8.63542C11.4899 8.88719 11.4801 9.33477 11.4737 9.76921C11.4672 10.2177 11.4397 10.6656 11.4295 11.1223C11.41 12.0043 11.3825 12.9249 11.3312 13.8038C13.3047 13.6922 15.6124 12.6166 16.0126 10.425C16.4597 7.97711 14.4767 6.47515 12.336 6.20307C11.2282 6.06228 9.71444 6.19487 8.69988 6.47346C7.28754 6.86131 6.49381 7.52527 5.52739 8.34456C5.36885 8.47895 5.16814 8.70266 4.99078 8.8111C4.77104 8.94546 4.39577 8.948 4.17097 8.81184C3.96258 8.68563 3.87414 8.39464 3.94544 8.06651C4.12214 7.25319 5.27009 6.34184 5.83481 5.92013C6.45359 5.45805 7.67002 4.89029 8.55392 4.62409C10.5776 4.01464 13.5041 4.10613 15.3834 5.14361C15.9489 5.45576 16.3871 5.78148 16.8158 6.20461L17.3093 6.74035C18.0138 7.61087 18.3888 8.95236 18.2738 10.2651C18.0859 12.4112 16.5886 14.0121 14.7025 14.7718C13.9856 15.0606 13.032 15.2563 12.2289 15.3176C11.9125 15.3418 11.5702 15.3392 11.2564 15.3722H11.2563ZM10.8636 0.0197559C8.50487 0.167237 6.40648 0.95486 4.59735 2.38977C4.0096 2.85594 3.82276 3.07167 3.30212 3.58756L2.80386 4.17389C2.69084 4.30628 2.58875 4.43697 2.48258 4.58425C2.27824 4.8677 2.09171 5.13177 1.90258 5.44097C1.53449 6.04275 1.21292 6.63637 0.923731 7.33257C0.523425 8.29631 0.34478 9.1243 0.174174 10.1545C-0.425617 13.7763 0.518716 18.5311 3.08426 21.2515C3.21393 21.389 3.33295 21.4733 3.45507 21.6119C3.57597 21.7492 3.68373 21.8298 3.82253 21.9488C4.45895 22.4947 5.23158 22.9434 6.07577 23.303C7.53489 23.9245 9.36018 24.1469 11.0778 23.9032C12.7053 23.6721 14.1181 23.0958 15.31 22.3814C15.6244 22.1929 15.8967 22.0099 16.178 21.812L17.7341 20.4945C17.8571 20.3705 17.9491 20.2492 18.0696 20.1248C18.6256 19.5506 19.2105 18.7507 19.6223 18.0746C21.9692 14.2217 23.097 8.73736 20.5515 4.70386C20.2791 4.27211 20.0991 4.02739 19.7994 3.6679L19.2759 3.10701C18.7545 2.58608 18.337 2.23082 17.6857 1.8227C17.1067 1.45994 16.4846 1.12557 15.7856 0.848249C14.3231 0.267924 12.6207 -0.0900911 10.8636 0.0197614V0.0197559Z" fill="#335459"/>
</svg>
