<svg width="25" height="25" viewBox="0 0 25 25" fill="none" xmlns="http://www.w3.org/2000/svg">
<g clip-path="url(#clip0_3066_56)">
<path d="M16.9871 18.0207L16.1585 19.0564L12.6371 17.6064L11.1871 14.9773L11.3942 7.39264L11.6014 4.14209L15.5371 8.69923L20.5085 10.9778L18.0228 11.8064L16.1585 12.8421L16.9871 18.0207Z" fill="#335459"/>
<path d="M12.0171 15.9859L16.2692 18.3658L15.3191 13.5871L18.8963 10.2781L14.0576 9.70446L12.0171 5.2802V15.9859ZM12.0171 18.2807L4.95575 22.2334L6.53263 14.2959L0.590561 8.80138L8.62712 7.84825L12.0171 0.499512L15.4072 7.84825L23.4437 8.80138L17.5017 14.2959L19.0785 22.2334L12.0171 18.2807Z" fill="#335459"/>
</g>
<defs>
<clipPath id="clip0_3066_56">
<rect width="24.0286" height="24.0286" fill="white" transform="translate(0.00106812 0.000488281)"/>
</clipPath>
</defs>
</svg>
