<svg width="24" height="26" viewBox="0 0 24 26" fill="none" xmlns="http://www.w3.org/2000/svg">
<g clip-path="url(#clip0_3134_26788)">
<path d="M23.0798 11.4193C23.5283 11.0852 23.4721 10.6397 22.9554 10.4271L21.1109 9.66123C20.5942 9.44861 20.3679 8.86496 20.6098 8.36454L21.4733 6.58002C21.7136 6.07948 21.4543 5.70857 20.8977 5.75919L18.9068 5.92927C18.3487 5.97819 17.8771 5.56486 17.856 5.01197L17.7822 3.02906C17.7611 2.47617 17.3598 2.2687 16.888 2.56926L15.2083 3.63827C14.7381 3.93894 14.1254 3.7879 13.8467 3.30723L12.8538 1.58778C12.5751 1.10711 12.1203 1.10612 11.8459 1.58827L10.8615 3.31147C10.5856 3.7935 9.97348 3.94528 9.5016 3.64666L7.81531 2.58145C7.34343 2.28283 6.94272 2.48972 6.9233 3.04765L6.86077 5.02549C6.84319 5.58037 6.37253 5.99893 5.81506 5.95068L3.82294 5.78126C3.26547 5.73301 3.00863 6.10647 3.25227 6.60532L4.12635 8.38949C4.36998 8.88834 4.14772 9.47304 3.63073 9.68747L1.79102 10.4565C1.27552 10.6726 1.22255 11.1166 1.67124 11.447L3.28007 12.6277C3.73036 12.9582 3.8079 13.5758 3.45203 14.0074L2.18279 15.5347C1.82852 15.9665 1.98948 16.386 2.54272 16.4706L4.51882 16.7728C5.07206 16.8573 5.43185 17.3726 5.31707 17.9156L4.91156 19.8575C4.79849 20.3991 5.13856 20.6978 5.66936 20.5146L7.55747 19.8766C8.08656 19.6949 8.64753 19.984 8.80161 20.521L9.35037 22.4251C9.50469 22.959 9.94542 23.0657 10.3297 22.6632L11.7019 21.2246C12.0863 20.8205 12.7164 20.8198 13.1035 21.2239L14.4835 22.6574C14.8691 23.0597 15.3094 22.9513 15.4603 22.4188L16.0001 20.5105C16.1513 19.9748 16.709 19.6853 17.2395 19.8622L19.1322 20.4961C19.6643 20.6732 20.0024 20.3758 19.8857 19.8335L19.468 17.8943C19.353 17.3505 19.7099 16.8377 20.261 16.7516L22.2364 16.4418C22.7891 16.3558 22.9481 15.9339 22.5899 15.508L21.3132 13.98C20.955 13.5541 21.0305 12.9317 21.4787 12.6008L23.0798 11.4193Z" fill="#335459"/>
<path d="M17.3808 14.8565L17.9371 16.7558C18.0926 17.2899 17.7751 17.6141 17.2333 17.4727L15.2999 16.9768C14.758 16.8369 14.2225 17.1675 14.1103 17.7127L13.7656 19.3799L19.4232 25.5977L19.8721 21.8085L23.8094 21.6782L17.3439 14.572C17.3423 14.6642 17.3535 14.758 17.3808 14.8565Z" fill="#335459"/>
<path d="M11.183 18.0016L9.34415 18.774C8.82954 18.9934 8.46883 18.7216 8.54257 18.1717L8.8087 16.2072C8.88244 15.6572 8.48646 15.1693 7.92856 15.1248L7.64159 15.0994L0.765625 21.2503L4.58757 21.6954L4.72063 25.5973L12.5008 18.6405L12.4687 18.5547C12.2779 18.0302 11.6992 17.7823 11.183 18.0016Z" fill="#335459"/>
<path d="M12.2871 5.90283C8.84083 5.90283 6.03711 8.70655 6.03711 12.1528C6.03711 15.5991 8.84083 18.4028 12.2871 18.4028C15.7334 18.4028 18.5371 15.5991 18.5371 12.1528C18.5371 8.70661 15.7334 5.90283 12.2871 5.90283ZM13.2634 15.412C13.2634 15.8921 12.8742 16.2814 12.3941 16.2814C11.914 16.2814 11.5248 15.8921 11.5248 15.412V10.7001L11.3671 10.826C10.9919 11.1256 10.4449 11.0642 10.1452 10.689C9.84573 10.3138 9.90704 9.76685 10.2822 9.46728L11.8516 8.21422C12.1127 8.00581 12.47 7.96548 12.771 8.11025C13.072 8.25514 13.2634 8.55958 13.2634 8.89364V15.412H13.2634Z" fill="#D8FFB9"/>
</g>
<defs>
<clipPath id="clip0_3134_26788">
<rect width="24" height="26" fill="white"/>
</clipPath>
</defs>
</svg>
